%TF.GenerationSoftware,KiCad,Pcbnew,9.0.7*%
%TF.CreationDate,2026-06-07T14:27:02+05:30*%
%TF.ProjectId,nexpod pcbh,6e657870-6f64-4207-9063-62682e6b6963,rev?*%
%TF.SameCoordinates,Original*%
%TF.FileFunction,Soldermask,Top*%
%TF.FilePolarity,Negative*%
%FSLAX46Y46*%
G04 Gerber Fmt 4.6, Leading zero omitted, Abs format (unit mm)*
G04 Created by KiCad (PCBNEW 9.0.7) date 2026-06-07 14:27:02*
%MOMM*%
%LPD*%
G01*
G04 APERTURE LIST*
G04 Aperture macros list*
%AMRoundRect*
0 Rectangle with rounded corners*
0 $1 Rounding radius*
0 $2 $3 $4 $5 $6 $7 $8 $9 X,Y pos of 4 corners*
0 Add a 4 corners polygon primitive as box body*
4,1,4,$2,$3,$4,$5,$6,$7,$8,$9,$2,$3,0*
0 Add four circle primitives for the rounded corners*
1,1,$1+$1,$2,$3*
1,1,$1+$1,$4,$5*
1,1,$1+$1,$6,$7*
1,1,$1+$1,$8,$9*
0 Add four rect primitives between the rounded corners*
20,1,$1+$1,$2,$3,$4,$5,0*
20,1,$1+$1,$4,$5,$6,$7,0*
20,1,$1+$1,$6,$7,$8,$9,0*
20,1,$1+$1,$8,$9,$2,$3,0*%
G04 Aperture macros list end*
%ADD10R,1.600000X1.600000*%
%ADD11O,1.600000X1.600000*%
%ADD12C,2.404000*%
%ADD13RoundRect,0.102000X0.754000X0.754000X-0.754000X0.754000X-0.754000X-0.754000X0.754000X-0.754000X0*%
%ADD14C,1.712000*%
%ADD15C,1.800000*%
%ADD16O,2.900000X1.700000*%
%ADD17R,2.000000X2.000000*%
%ADD18C,2.000000*%
%ADD19R,0.850000X0.850000*%
%ADD20C,0.850000*%
G04 APERTURE END LIST*
D10*
%TO.C,A1*%
X132928953Y-108488953D03*
D11*
X132928953Y-111028953D03*
X132928953Y-113568953D03*
X132928953Y-116108953D03*
X132928953Y-118648953D03*
X132928953Y-121188953D03*
X132928953Y-123728953D03*
X132928953Y-126268953D03*
X132928953Y-128808953D03*
X132928953Y-131348953D03*
X132928953Y-133888953D03*
X132928953Y-136428953D03*
X132928953Y-138968953D03*
X132928953Y-141508953D03*
X132928953Y-144048953D03*
X148168953Y-144048953D03*
X148168953Y-141508953D03*
X148168953Y-138968953D03*
X148168953Y-136428953D03*
X148168953Y-133888953D03*
X148168953Y-131348953D03*
X148168953Y-128808953D03*
X148168953Y-126268953D03*
X148168953Y-123728953D03*
X148168953Y-121188953D03*
X148168953Y-118648953D03*
X148168953Y-116108953D03*
X148168953Y-113568953D03*
X148168953Y-111028953D03*
X148168953Y-108488953D03*
%TD*%
D12*
%TO.C,J1*%
X129664503Y-78148953D03*
X129664503Y-101148953D03*
X150668953Y-78148953D03*
X150668953Y-101148953D03*
D13*
X143978953Y-101648953D03*
D14*
X141438953Y-101648953D03*
X138898953Y-101648953D03*
X136358953Y-101648953D03*
%TD*%
D15*
%TO.C,SW2*%
X123168953Y-107148953D03*
X123168953Y-116148953D03*
D16*
X116918953Y-109148953D03*
X129418953Y-109148953D03*
X116918953Y-114148953D03*
X129418953Y-114148953D03*
%TD*%
D17*
%TO.C,REF\u002A\u002A*%
X117168953Y-92648953D03*
D18*
X122168953Y-92648953D03*
%TD*%
D15*
%TO.C,SW1*%
X158168953Y-107148953D03*
X158168953Y-116148953D03*
D16*
X151918953Y-109148953D03*
X164418953Y-109148953D03*
X151918953Y-114148953D03*
X164418953Y-114148953D03*
%TD*%
D19*
%TO.C,REF\u002A\u002A*%
X154168953Y-91648953D03*
D20*
X154168953Y-92648953D03*
X154168953Y-93648953D03*
X154168953Y-94648953D03*
X154168953Y-95648953D03*
%TD*%
M02*
