M48
; DRILL file {KiCad 9.0.7} date 2026-06-07T14:27:22+0530
; FORMAT={-:-/ absolute / metric / decimal}
; #@! TF.CreationDate,2026-06-07T14:27:22+05:30
; #@! TF.GenerationSoftware,Kicad,Pcbnew,9.0.7
; #@! TF.FileFunction,Plated,1,2,PTH
FMAT,2
METRIC
; #@! TA.AperFunction,Plated,PTH,ViaDrill
T1C0.300
; #@! TA.AperFunction,Plated,PTH,ComponentDrill
T2C0.500
; #@! TA.AperFunction,Plated,PTH,ComponentDrill
T3C1.000
; #@! TA.AperFunction,Plated,PTH,ComponentDrill
T4C1.200
%
G90
G05
T1
X130.594Y-117.149
X139.169Y-110.649
X140.169Y-99.649
X142.169Y-109.649
X145.169Y-109.649
T2
X154.169Y-91.649
X154.169Y-92.649
X154.169Y-93.649
X154.169Y-94.649
X154.169Y-95.649
T3
X117.169Y-92.649
X122.169Y-92.649
X132.929Y-108.489
X132.929Y-111.029
X132.929Y-113.569
X132.929Y-116.109
X132.929Y-118.649
X132.929Y-121.189
X132.929Y-123.729
X132.929Y-126.269
X132.929Y-128.809
X132.929Y-131.349
X132.929Y-133.889
X132.929Y-136.429
X132.929Y-138.969
X132.929Y-141.509
X132.929Y-144.049
X136.359Y-101.649
X138.899Y-101.649
X141.439Y-101.649
X143.979Y-101.649
X148.169Y-108.489
X148.169Y-111.029
X148.169Y-113.569
X148.169Y-116.109
X148.169Y-118.649
X148.169Y-121.189
X148.169Y-123.729
X148.169Y-126.269
X148.169Y-128.809
X148.169Y-131.349
X148.169Y-133.889
X148.169Y-136.429
X148.169Y-138.969
X148.169Y-141.509
X148.169Y-144.049
T4
X116.919Y-109.149
X116.919Y-114.149
X129.419Y-109.149
X129.419Y-114.149
X151.919Y-109.149
X151.919Y-114.149
X164.419Y-109.149
X164.419Y-114.149
M30
