%TF.GenerationSoftware,KiCad,Pcbnew,9.0.7*%
%TF.CreationDate,2026-06-07T14:27:01+05:30*%
%TF.ProjectId,nexpod pcbh,6e657870-6f64-4207-9063-62682e6b6963,rev?*%
%TF.SameCoordinates,Original*%
%TF.FileFunction,Legend,Top*%
%TF.FilePolarity,Positive*%
%FSLAX46Y46*%
G04 Gerber Fmt 4.6, Leading zero omitted, Abs format (unit mm)*
G04 Created by KiCad (PCBNEW 9.0.7) date 2026-06-07 14:27:01*
%MOMM*%
%LPD*%
G01*
G04 APERTURE LIST*
%ADD10C,0.150000*%
%ADD11C,0.200000*%
%ADD12C,0.120000*%
G04 APERTURE END LIST*
D10*
X139834667Y-103578057D02*
X140310857Y-103578057D01*
X139739429Y-103863772D02*
X140072762Y-102863772D01*
X140072762Y-102863772D02*
X140406095Y-103863772D01*
X141263238Y-103863772D02*
X140691810Y-103863772D01*
X140977524Y-103863772D02*
X140977524Y-102863772D01*
X140977524Y-102863772D02*
X140882286Y-103006629D01*
X140882286Y-103006629D02*
X140787048Y-103101867D01*
X140787048Y-103101867D02*
X140691810Y-103149486D01*
X139287048Y-143503772D02*
X139287048Y-144313295D01*
X139287048Y-144313295D02*
X139334667Y-144408533D01*
X139334667Y-144408533D02*
X139382286Y-144456153D01*
X139382286Y-144456153D02*
X139477524Y-144503772D01*
X139477524Y-144503772D02*
X139668000Y-144503772D01*
X139668000Y-144503772D02*
X139763238Y-144456153D01*
X139763238Y-144456153D02*
X139810857Y-144408533D01*
X139810857Y-144408533D02*
X139858476Y-144313295D01*
X139858476Y-144313295D02*
X139858476Y-143503772D01*
X140287048Y-144456153D02*
X140429905Y-144503772D01*
X140429905Y-144503772D02*
X140668000Y-144503772D01*
X140668000Y-144503772D02*
X140763238Y-144456153D01*
X140763238Y-144456153D02*
X140810857Y-144408533D01*
X140810857Y-144408533D02*
X140858476Y-144313295D01*
X140858476Y-144313295D02*
X140858476Y-144218057D01*
X140858476Y-144218057D02*
X140810857Y-144122819D01*
X140810857Y-144122819D02*
X140763238Y-144075200D01*
X140763238Y-144075200D02*
X140668000Y-144027581D01*
X140668000Y-144027581D02*
X140477524Y-143979962D01*
X140477524Y-143979962D02*
X140382286Y-143932343D01*
X140382286Y-143932343D02*
X140334667Y-143884724D01*
X140334667Y-143884724D02*
X140287048Y-143789486D01*
X140287048Y-143789486D02*
X140287048Y-143694248D01*
X140287048Y-143694248D02*
X140334667Y-143599010D01*
X140334667Y-143599010D02*
X140382286Y-143551391D01*
X140382286Y-143551391D02*
X140477524Y-143503772D01*
X140477524Y-143503772D02*
X140715619Y-143503772D01*
X140715619Y-143503772D02*
X140858476Y-143551391D01*
X141620381Y-143979962D02*
X141763238Y-144027581D01*
X141763238Y-144027581D02*
X141810857Y-144075200D01*
X141810857Y-144075200D02*
X141858476Y-144170438D01*
X141858476Y-144170438D02*
X141858476Y-144313295D01*
X141858476Y-144313295D02*
X141810857Y-144408533D01*
X141810857Y-144408533D02*
X141763238Y-144456153D01*
X141763238Y-144456153D02*
X141668000Y-144503772D01*
X141668000Y-144503772D02*
X141287048Y-144503772D01*
X141287048Y-144503772D02*
X141287048Y-143503772D01*
X141287048Y-143503772D02*
X141620381Y-143503772D01*
X141620381Y-143503772D02*
X141715619Y-143551391D01*
X141715619Y-143551391D02*
X141763238Y-143599010D01*
X141763238Y-143599010D02*
X141810857Y-143694248D01*
X141810857Y-143694248D02*
X141810857Y-143789486D01*
X141810857Y-143789486D02*
X141763238Y-143884724D01*
X141763238Y-143884724D02*
X141715619Y-143932343D01*
X141715619Y-143932343D02*
X141620381Y-143979962D01*
X141620381Y-143979962D02*
X141287048Y-143979962D01*
D11*
X133383238Y-103892553D02*
X133526095Y-103940172D01*
X133526095Y-103940172D02*
X133764190Y-103940172D01*
X133764190Y-103940172D02*
X133859428Y-103892553D01*
X133859428Y-103892553D02*
X133907047Y-103844933D01*
X133907047Y-103844933D02*
X133954666Y-103749695D01*
X133954666Y-103749695D02*
X133954666Y-103654457D01*
X133954666Y-103654457D02*
X133907047Y-103559219D01*
X133907047Y-103559219D02*
X133859428Y-103511600D01*
X133859428Y-103511600D02*
X133764190Y-103463981D01*
X133764190Y-103463981D02*
X133573714Y-103416362D01*
X133573714Y-103416362D02*
X133478476Y-103368743D01*
X133478476Y-103368743D02*
X133430857Y-103321124D01*
X133430857Y-103321124D02*
X133383238Y-103225886D01*
X133383238Y-103225886D02*
X133383238Y-103130648D01*
X133383238Y-103130648D02*
X133430857Y-103035410D01*
X133430857Y-103035410D02*
X133478476Y-102987791D01*
X133478476Y-102987791D02*
X133573714Y-102940172D01*
X133573714Y-102940172D02*
X133811809Y-102940172D01*
X133811809Y-102940172D02*
X133954666Y-102987791D01*
X134383238Y-103940172D02*
X134383238Y-102940172D01*
X134383238Y-102940172D02*
X134621333Y-102940172D01*
X134621333Y-102940172D02*
X134764190Y-102987791D01*
X134764190Y-102987791D02*
X134859428Y-103083029D01*
X134859428Y-103083029D02*
X134907047Y-103178267D01*
X134907047Y-103178267D02*
X134954666Y-103368743D01*
X134954666Y-103368743D02*
X134954666Y-103511600D01*
X134954666Y-103511600D02*
X134907047Y-103702076D01*
X134907047Y-103702076D02*
X134859428Y-103797314D01*
X134859428Y-103797314D02*
X134764190Y-103892553D01*
X134764190Y-103892553D02*
X134621333Y-103940172D01*
X134621333Y-103940172D02*
X134383238Y-103940172D01*
X135335619Y-103654457D02*
X135811809Y-103654457D01*
X135240381Y-103940172D02*
X135573714Y-102940172D01*
X135573714Y-102940172D02*
X135907047Y-103940172D01*
X136954667Y-103892553D02*
X137097524Y-103940172D01*
X137097524Y-103940172D02*
X137335619Y-103940172D01*
X137335619Y-103940172D02*
X137430857Y-103892553D01*
X137430857Y-103892553D02*
X137478476Y-103844933D01*
X137478476Y-103844933D02*
X137526095Y-103749695D01*
X137526095Y-103749695D02*
X137526095Y-103654457D01*
X137526095Y-103654457D02*
X137478476Y-103559219D01*
X137478476Y-103559219D02*
X137430857Y-103511600D01*
X137430857Y-103511600D02*
X137335619Y-103463981D01*
X137335619Y-103463981D02*
X137145143Y-103416362D01*
X137145143Y-103416362D02*
X137049905Y-103368743D01*
X137049905Y-103368743D02*
X137002286Y-103321124D01*
X137002286Y-103321124D02*
X136954667Y-103225886D01*
X136954667Y-103225886D02*
X136954667Y-103130648D01*
X136954667Y-103130648D02*
X137002286Y-103035410D01*
X137002286Y-103035410D02*
X137049905Y-102987791D01*
X137049905Y-102987791D02*
X137145143Y-102940172D01*
X137145143Y-102940172D02*
X137383238Y-102940172D01*
X137383238Y-102940172D02*
X137526095Y-102987791D01*
X138526095Y-103844933D02*
X138478476Y-103892553D01*
X138478476Y-103892553D02*
X138335619Y-103940172D01*
X138335619Y-103940172D02*
X138240381Y-103940172D01*
X138240381Y-103940172D02*
X138097524Y-103892553D01*
X138097524Y-103892553D02*
X138002286Y-103797314D01*
X138002286Y-103797314D02*
X137954667Y-103702076D01*
X137954667Y-103702076D02*
X137907048Y-103511600D01*
X137907048Y-103511600D02*
X137907048Y-103368743D01*
X137907048Y-103368743D02*
X137954667Y-103178267D01*
X137954667Y-103178267D02*
X138002286Y-103083029D01*
X138002286Y-103083029D02*
X138097524Y-102987791D01*
X138097524Y-102987791D02*
X138240381Y-102940172D01*
X138240381Y-102940172D02*
X138335619Y-102940172D01*
X138335619Y-102940172D02*
X138478476Y-102987791D01*
X138478476Y-102987791D02*
X138526095Y-103035410D01*
X138954667Y-103940172D02*
X138954667Y-102940172D01*
X139526095Y-103940172D02*
X139097524Y-103368743D01*
X139526095Y-102940172D02*
X138954667Y-103511600D01*
X140573715Y-102940172D02*
X140907048Y-103940172D01*
X140907048Y-103940172D02*
X141240381Y-102940172D01*
X142145143Y-103844933D02*
X142097524Y-103892553D01*
X142097524Y-103892553D02*
X141954667Y-103940172D01*
X141954667Y-103940172D02*
X141859429Y-103940172D01*
X141859429Y-103940172D02*
X141716572Y-103892553D01*
X141716572Y-103892553D02*
X141621334Y-103797314D01*
X141621334Y-103797314D02*
X141573715Y-103702076D01*
X141573715Y-103702076D02*
X141526096Y-103511600D01*
X141526096Y-103511600D02*
X141526096Y-103368743D01*
X141526096Y-103368743D02*
X141573715Y-103178267D01*
X141573715Y-103178267D02*
X141621334Y-103083029D01*
X141621334Y-103083029D02*
X141716572Y-102987791D01*
X141716572Y-102987791D02*
X141859429Y-102940172D01*
X141859429Y-102940172D02*
X141954667Y-102940172D01*
X141954667Y-102940172D02*
X142097524Y-102987791D01*
X142097524Y-102987791D02*
X142145143Y-103035410D01*
X143145143Y-103844933D02*
X143097524Y-103892553D01*
X143097524Y-103892553D02*
X142954667Y-103940172D01*
X142954667Y-103940172D02*
X142859429Y-103940172D01*
X142859429Y-103940172D02*
X142716572Y-103892553D01*
X142716572Y-103892553D02*
X142621334Y-103797314D01*
X142621334Y-103797314D02*
X142573715Y-103702076D01*
X142573715Y-103702076D02*
X142526096Y-103511600D01*
X142526096Y-103511600D02*
X142526096Y-103368743D01*
X142526096Y-103368743D02*
X142573715Y-103178267D01*
X142573715Y-103178267D02*
X142621334Y-103083029D01*
X142621334Y-103083029D02*
X142716572Y-102987791D01*
X142716572Y-102987791D02*
X142859429Y-102940172D01*
X142859429Y-102940172D02*
X142954667Y-102940172D01*
X142954667Y-102940172D02*
X143097524Y-102987791D01*
X143097524Y-102987791D02*
X143145143Y-103035410D01*
X144859429Y-102987791D02*
X144764191Y-102940172D01*
X144764191Y-102940172D02*
X144621334Y-102940172D01*
X144621334Y-102940172D02*
X144478477Y-102987791D01*
X144478477Y-102987791D02*
X144383239Y-103083029D01*
X144383239Y-103083029D02*
X144335620Y-103178267D01*
X144335620Y-103178267D02*
X144288001Y-103368743D01*
X144288001Y-103368743D02*
X144288001Y-103511600D01*
X144288001Y-103511600D02*
X144335620Y-103702076D01*
X144335620Y-103702076D02*
X144383239Y-103797314D01*
X144383239Y-103797314D02*
X144478477Y-103892553D01*
X144478477Y-103892553D02*
X144621334Y-103940172D01*
X144621334Y-103940172D02*
X144716572Y-103940172D01*
X144716572Y-103940172D02*
X144859429Y-103892553D01*
X144859429Y-103892553D02*
X144907048Y-103844933D01*
X144907048Y-103844933D02*
X144907048Y-103511600D01*
X144907048Y-103511600D02*
X144716572Y-103511600D01*
X145335620Y-103940172D02*
X145335620Y-102940172D01*
X145335620Y-102940172D02*
X145907048Y-103940172D01*
X145907048Y-103940172D02*
X145907048Y-102940172D01*
X146383239Y-103940172D02*
X146383239Y-102940172D01*
X146383239Y-102940172D02*
X146621334Y-102940172D01*
X146621334Y-102940172D02*
X146764191Y-102987791D01*
X146764191Y-102987791D02*
X146859429Y-103083029D01*
X146859429Y-103083029D02*
X146907048Y-103178267D01*
X146907048Y-103178267D02*
X146954667Y-103368743D01*
X146954667Y-103368743D02*
X146954667Y-103511600D01*
X146954667Y-103511600D02*
X146907048Y-103702076D01*
X146907048Y-103702076D02*
X146859429Y-103797314D01*
X146859429Y-103797314D02*
X146764191Y-103892553D01*
X146764191Y-103892553D02*
X146621334Y-103940172D01*
X146621334Y-103940172D02*
X146383239Y-103940172D01*
D10*
X121835620Y-103756153D02*
X121978477Y-103803772D01*
X121978477Y-103803772D02*
X122216572Y-103803772D01*
X122216572Y-103803772D02*
X122311810Y-103756153D01*
X122311810Y-103756153D02*
X122359429Y-103708533D01*
X122359429Y-103708533D02*
X122407048Y-103613295D01*
X122407048Y-103613295D02*
X122407048Y-103518057D01*
X122407048Y-103518057D02*
X122359429Y-103422819D01*
X122359429Y-103422819D02*
X122311810Y-103375200D01*
X122311810Y-103375200D02*
X122216572Y-103327581D01*
X122216572Y-103327581D02*
X122026096Y-103279962D01*
X122026096Y-103279962D02*
X121930858Y-103232343D01*
X121930858Y-103232343D02*
X121883239Y-103184724D01*
X121883239Y-103184724D02*
X121835620Y-103089486D01*
X121835620Y-103089486D02*
X121835620Y-102994248D01*
X121835620Y-102994248D02*
X121883239Y-102899010D01*
X121883239Y-102899010D02*
X121930858Y-102851391D01*
X121930858Y-102851391D02*
X122026096Y-102803772D01*
X122026096Y-102803772D02*
X122264191Y-102803772D01*
X122264191Y-102803772D02*
X122407048Y-102851391D01*
X122740382Y-102803772D02*
X122978477Y-103803772D01*
X122978477Y-103803772D02*
X123168953Y-103089486D01*
X123168953Y-103089486D02*
X123359429Y-103803772D01*
X123359429Y-103803772D02*
X123597525Y-102803772D01*
X123930858Y-102899010D02*
X123978477Y-102851391D01*
X123978477Y-102851391D02*
X124073715Y-102803772D01*
X124073715Y-102803772D02*
X124311810Y-102803772D01*
X124311810Y-102803772D02*
X124407048Y-102851391D01*
X124407048Y-102851391D02*
X124454667Y-102899010D01*
X124454667Y-102899010D02*
X124502286Y-102994248D01*
X124502286Y-102994248D02*
X124502286Y-103089486D01*
X124502286Y-103089486D02*
X124454667Y-103232343D01*
X124454667Y-103232343D02*
X123883239Y-103803772D01*
X123883239Y-103803772D02*
X124502286Y-103803772D01*
X118335619Y-85933772D02*
X118002286Y-85457581D01*
X117764191Y-85933772D02*
X117764191Y-84933772D01*
X117764191Y-84933772D02*
X118145143Y-84933772D01*
X118145143Y-84933772D02*
X118240381Y-84981391D01*
X118240381Y-84981391D02*
X118288000Y-85029010D01*
X118288000Y-85029010D02*
X118335619Y-85124248D01*
X118335619Y-85124248D02*
X118335619Y-85267105D01*
X118335619Y-85267105D02*
X118288000Y-85362343D01*
X118288000Y-85362343D02*
X118240381Y-85409962D01*
X118240381Y-85409962D02*
X118145143Y-85457581D01*
X118145143Y-85457581D02*
X117764191Y-85457581D01*
X118764191Y-85409962D02*
X119097524Y-85409962D01*
X119240381Y-85933772D02*
X118764191Y-85933772D01*
X118764191Y-85933772D02*
X118764191Y-84933772D01*
X118764191Y-84933772D02*
X119240381Y-84933772D01*
X120002286Y-85409962D02*
X119668953Y-85409962D01*
X119668953Y-85933772D02*
X119668953Y-84933772D01*
X119668953Y-84933772D02*
X120145143Y-84933772D01*
X120668953Y-84933772D02*
X120668953Y-85171867D01*
X120430858Y-85076629D02*
X120668953Y-85171867D01*
X120668953Y-85171867D02*
X120907048Y-85076629D01*
X120526096Y-85362343D02*
X120668953Y-85171867D01*
X120668953Y-85171867D02*
X120811810Y-85362343D01*
X121430858Y-84933772D02*
X121430858Y-85171867D01*
X121192763Y-85076629D02*
X121430858Y-85171867D01*
X121430858Y-85171867D02*
X121668953Y-85076629D01*
X121288001Y-85362343D02*
X121430858Y-85171867D01*
X121430858Y-85171867D02*
X121573715Y-85362343D01*
X156835620Y-103756153D02*
X156978477Y-103803772D01*
X156978477Y-103803772D02*
X157216572Y-103803772D01*
X157216572Y-103803772D02*
X157311810Y-103756153D01*
X157311810Y-103756153D02*
X157359429Y-103708533D01*
X157359429Y-103708533D02*
X157407048Y-103613295D01*
X157407048Y-103613295D02*
X157407048Y-103518057D01*
X157407048Y-103518057D02*
X157359429Y-103422819D01*
X157359429Y-103422819D02*
X157311810Y-103375200D01*
X157311810Y-103375200D02*
X157216572Y-103327581D01*
X157216572Y-103327581D02*
X157026096Y-103279962D01*
X157026096Y-103279962D02*
X156930858Y-103232343D01*
X156930858Y-103232343D02*
X156883239Y-103184724D01*
X156883239Y-103184724D02*
X156835620Y-103089486D01*
X156835620Y-103089486D02*
X156835620Y-102994248D01*
X156835620Y-102994248D02*
X156883239Y-102899010D01*
X156883239Y-102899010D02*
X156930858Y-102851391D01*
X156930858Y-102851391D02*
X157026096Y-102803772D01*
X157026096Y-102803772D02*
X157264191Y-102803772D01*
X157264191Y-102803772D02*
X157407048Y-102851391D01*
X157740382Y-102803772D02*
X157978477Y-103803772D01*
X157978477Y-103803772D02*
X158168953Y-103089486D01*
X158168953Y-103089486D02*
X158359429Y-103803772D01*
X158359429Y-103803772D02*
X158597525Y-102803772D01*
X159502286Y-103803772D02*
X158930858Y-103803772D01*
X159216572Y-103803772D02*
X159216572Y-102803772D01*
X159216572Y-102803772D02*
X159121334Y-102946629D01*
X159121334Y-102946629D02*
X159026096Y-103041867D01*
X159026096Y-103041867D02*
X158930858Y-103089486D01*
X152835619Y-90493772D02*
X152502286Y-90017581D01*
X152264191Y-90493772D02*
X152264191Y-89493772D01*
X152264191Y-89493772D02*
X152645143Y-89493772D01*
X152645143Y-89493772D02*
X152740381Y-89541391D01*
X152740381Y-89541391D02*
X152788000Y-89589010D01*
X152788000Y-89589010D02*
X152835619Y-89684248D01*
X152835619Y-89684248D02*
X152835619Y-89827105D01*
X152835619Y-89827105D02*
X152788000Y-89922343D01*
X152788000Y-89922343D02*
X152740381Y-89969962D01*
X152740381Y-89969962D02*
X152645143Y-90017581D01*
X152645143Y-90017581D02*
X152264191Y-90017581D01*
X153264191Y-89969962D02*
X153597524Y-89969962D01*
X153740381Y-90493772D02*
X153264191Y-90493772D01*
X153264191Y-90493772D02*
X153264191Y-89493772D01*
X153264191Y-89493772D02*
X153740381Y-89493772D01*
X154502286Y-89969962D02*
X154168953Y-89969962D01*
X154168953Y-90493772D02*
X154168953Y-89493772D01*
X154168953Y-89493772D02*
X154645143Y-89493772D01*
X155168953Y-89493772D02*
X155168953Y-89731867D01*
X154930858Y-89636629D02*
X155168953Y-89731867D01*
X155168953Y-89731867D02*
X155407048Y-89636629D01*
X155026096Y-89922343D02*
X155168953Y-89731867D01*
X155168953Y-89731867D02*
X155311810Y-89922343D01*
X155930858Y-89493772D02*
X155930858Y-89731867D01*
X155692763Y-89636629D02*
X155930858Y-89731867D01*
X155930858Y-89731867D02*
X156168953Y-89636629D01*
X155788001Y-89922343D02*
X155930858Y-89731867D01*
X155930858Y-89731867D02*
X156073715Y-89922343D01*
D12*
%TO.C,A1*%
X131528953Y-104548953D02*
X131528953Y-107218953D01*
X131528953Y-109758953D02*
X131528953Y-147988953D01*
X131528953Y-147988953D02*
X136608953Y-147988953D01*
X134198953Y-107218953D02*
X131528953Y-107218953D01*
X134198953Y-109758953D02*
X131528953Y-109758953D01*
X134198953Y-109758953D02*
X134198953Y-107218953D01*
X134198953Y-109758953D02*
X134198953Y-145318953D01*
X134198953Y-145318953D02*
X131528953Y-145318953D01*
X136608953Y-140108953D02*
X144488953Y-140108953D01*
X136608953Y-150528953D02*
X136608953Y-140108953D01*
X144488953Y-140108953D02*
X144488953Y-150528953D01*
X144488953Y-150528953D02*
X136608953Y-150528953D01*
X146898953Y-107218953D02*
X146898953Y-145318953D01*
X146898953Y-107218953D02*
X149568953Y-107218953D01*
X146898953Y-145318953D02*
X149568953Y-145318953D01*
X149568953Y-104548953D02*
X131528953Y-104548953D01*
X149568953Y-147988953D02*
X144488953Y-147988953D01*
X149568953Y-147988953D02*
X149568953Y-104548953D01*
%TO.C,SW2*%
X117058953Y-105538953D02*
X117058953Y-108048953D01*
X117058953Y-105538953D02*
X129278953Y-105538953D01*
X117058953Y-110348953D02*
X117058953Y-112948953D01*
X117058953Y-115248953D02*
X117058953Y-117758953D01*
X129278953Y-105538953D02*
X129278953Y-108048953D01*
X129278953Y-110348953D02*
X129278953Y-112948953D01*
X129278953Y-115248953D02*
X129278953Y-117758953D01*
X129278953Y-117758953D02*
X117058953Y-117758953D01*
%TO.C,REF\u002A\u002A*%
X113268953Y-94148952D02*
G75*
G02*
X113268953Y-91148953I6400000J1499999D01*
G01*
X125898953Y-92648953D02*
G75*
G02*
X113438953Y-92648953I-6230000J0D01*
G01*
X113438953Y-92648953D02*
G75*
G02*
X125898953Y-92648953I6230000J0D01*
G01*
%TO.C,SW1*%
X152058953Y-105538953D02*
X152058953Y-108048953D01*
X152058953Y-105538953D02*
X164278953Y-105538953D01*
X152058953Y-110348953D02*
X152058953Y-112948953D01*
X152058953Y-115248953D02*
X152058953Y-117758953D01*
X164278953Y-105538953D02*
X164278953Y-108048953D01*
X164278953Y-110348953D02*
X164278953Y-112948953D01*
X164278953Y-115248953D02*
X164278953Y-117758953D01*
X164278953Y-117758953D02*
X152058953Y-117758953D01*
%TO.C,REF\u002A\u002A*%
X153423953Y-90913953D02*
X154168953Y-90913953D01*
X153423953Y-91648953D02*
X153423953Y-90913953D01*
X153423953Y-92383953D02*
X153423953Y-96258953D01*
X153423953Y-92383953D02*
X153483388Y-92383953D01*
X153423953Y-96258953D02*
X153758923Y-96258953D01*
X154578983Y-96258953D02*
X154913953Y-96258953D01*
X154854518Y-92383953D02*
X154913953Y-92383953D01*
X154913953Y-92383953D02*
X154913953Y-96258953D01*
%TD*%
M02*
