%TF.GenerationSoftware,KiCad,Pcbnew,9.0.7*%
%TF.CreationDate,2026-06-07T14:27:01+05:30*%
%TF.ProjectId,nexpod pcbh,6e657870-6f64-4207-9063-62682e6b6963,rev?*%
%TF.SameCoordinates,Original*%
%TF.FileFunction,Copper,L2,Bot*%
%TF.FilePolarity,Positive*%
%FSLAX46Y46*%
G04 Gerber Fmt 4.6, Leading zero omitted, Abs format (unit mm)*
G04 Created by KiCad (PCBNEW 9.0.7) date 2026-06-07 14:27:01*
%MOMM*%
%LPD*%
G01*
G04 APERTURE LIST*
%TA.AperFunction,Conductor*%
%ADD10C,0.200000*%
%TD*%
%TA.AperFunction,NonConductor*%
%ADD11C,0.200000*%
%TD*%
%TA.AperFunction,ComponentPad*%
%ADD12R,1.600000X1.600000*%
%TD*%
%TA.AperFunction,ComponentPad*%
%ADD13O,1.600000X1.600000*%
%TD*%
%TA.AperFunction,ComponentPad*%
%ADD14R,1.508000X1.508000*%
%TD*%
%TA.AperFunction,ComponentPad*%
%ADD15C,1.508000*%
%TD*%
%TA.AperFunction,ComponentPad*%
%ADD16O,2.900000X1.700000*%
%TD*%
%TA.AperFunction,ComponentPad*%
%ADD17R,2.000000X2.000000*%
%TD*%
%TA.AperFunction,ComponentPad*%
%ADD18C,2.000000*%
%TD*%
%TA.AperFunction,ComponentPad*%
%ADD19R,0.850000X0.850000*%
%TD*%
%TA.AperFunction,ComponentPad*%
%ADD20C,0.850000*%
%TD*%
%TA.AperFunction,ViaPad*%
%ADD21C,0.600000*%
%TD*%
G04 APERTURE END LIST*
D10*
%TO.N,Net-(A1-A5)*%
X140168953Y-99648953D02*
X154168953Y-94648953D01*
D11*
X138368953Y-110273953D02*
X144043953Y-101598953D01*
D10*
%TO.N,unconnected-(SW2-Pad2)*%
X130643953Y-117173953D02*
X132218953Y-114848953D01*
D11*
X150093953Y-107148953D02*
X150093953Y-113148953D01*
X150093953Y-113148953D02*
X151843953Y-114398953D01*
D10*
X135343953Y-114848953D02*
X138368953Y-110273953D01*
X132218953Y-114848953D02*
X135343953Y-114848953D01*
D11*
X144043953Y-101598953D02*
X150093953Y-107148953D01*
%TD*%
D12*
%TO.P,A1,1,D1/TX*%
%TO.N,unconnected-(A1-D1{slash}TX-Pad1)*%
X132928953Y-108488953D03*
D13*
%TO.P,A1,2,D0/RX*%
%TO.N,unconnected-(A1-D0{slash}RX-Pad2)*%
X132928953Y-111028953D03*
%TO.P,A1,3,~{RESET}*%
%TO.N,unconnected-(A1-~{RESET}-Pad3)*%
X132928953Y-113568953D03*
%TO.P,A1,4,GND*%
%TO.N,Net-(J1-GND)*%
X132928953Y-116108953D03*
%TO.P,A1,5,D2*%
%TO.N,unconnected-(A1-D2-Pad5)*%
X132928953Y-118648953D03*
%TO.P,A1,6,D3*%
%TO.N,Net-(A1-D3)*%
X132928953Y-121188953D03*
%TO.P,A1,7,D4*%
%TO.N,Net-(A1-D4)*%
X132928953Y-123728953D03*
%TO.P,A1,8,D5*%
%TO.N,unconnected-(A1-D5-Pad8)*%
X132928953Y-126268953D03*
%TO.P,A1,9,D6*%
%TO.N,unconnected-(A1-D6-Pad9)*%
X132928953Y-128808953D03*
%TO.P,A1,10,D7*%
%TO.N,unconnected-(A1-D7-Pad10)*%
X132928953Y-131348953D03*
%TO.P,A1,11,D8*%
%TO.N,unconnected-(A1-D8-Pad11)*%
X132928953Y-133888953D03*
%TO.P,A1,12,D9*%
%TO.N,unconnected-(A1-D9-Pad12)*%
X132928953Y-136428953D03*
%TO.P,A1,13,D10*%
%TO.N,unconnected-(A1-D10-Pad13)*%
X132928953Y-138968953D03*
%TO.P,A1,14,D11*%
%TO.N,unconnected-(A1-D11-Pad14)*%
X132928953Y-141508953D03*
%TO.P,A1,15,D12*%
%TO.N,unconnected-(A1-D12-Pad15)*%
X132928953Y-144048953D03*
%TO.P,A1,16,D13*%
%TO.N,unconnected-(A1-D13-Pad16)*%
X148168953Y-144048953D03*
%TO.P,A1,17,3V3*%
%TO.N,unconnected-(A1-3V3-Pad17)*%
X148168953Y-141508953D03*
%TO.P,A1,18,AREF*%
%TO.N,unconnected-(A1-AREF-Pad18)*%
X148168953Y-138968953D03*
%TO.P,A1,19,A0*%
%TO.N,unconnected-(A1-A0-Pad19)*%
X148168953Y-136428953D03*
%TO.P,A1,20,A1*%
%TO.N,unconnected-(A1-A1-Pad20)*%
X148168953Y-133888953D03*
%TO.P,A1,21,A2*%
%TO.N,unconnected-(A1-A2-Pad21)*%
X148168953Y-131348953D03*
%TO.P,A1,22,A3*%
%TO.N,unconnected-(A1-A3-Pad22)*%
X148168953Y-128808953D03*
%TO.P,A1,23,A4*%
%TO.N,Net-(A1-A4)*%
X148168953Y-126268953D03*
%TO.P,A1,24,A5*%
%TO.N,Net-(A1-A5)*%
X148168953Y-123728953D03*
%TO.P,A1,25,A6*%
%TO.N,unconnected-(A1-A6-Pad25)*%
X148168953Y-121188953D03*
%TO.P,A1,26,A7*%
%TO.N,unconnected-(A1-A7-Pad26)*%
X148168953Y-118648953D03*
%TO.P,A1,27,+5V*%
%TO.N,Net-(A1-+5V)*%
X148168953Y-116108953D03*
%TO.P,A1,28,~{RESET}*%
%TO.N,unconnected-(A1-~{RESET}-Pad28)*%
X148168953Y-113568953D03*
%TO.P,A1,29,GND*%
%TO.N,Net-(J1-GND)*%
X148168953Y-111028953D03*
%TO.P,A1,30,VIN*%
%TO.N,unconnected-(A1-VIN-Pad30)*%
X148168953Y-108488953D03*
%TD*%
D14*
%TO.P,J1,1,GND*%
%TO.N,Net-(J1-GND)*%
X143978953Y-101648953D03*
D15*
%TO.P,J1,2,VCC*%
%TO.N,Net-(A1-+5V)*%
X141438953Y-101648953D03*
%TO.P,J1,3,SCL*%
%TO.N,Net-(A1-A5)*%
X138898953Y-101648953D03*
%TO.P,J1,4,SDA*%
%TO.N,Net-(A1-A4)*%
X136358953Y-101648953D03*
%TD*%
D16*
%TO.P,SW2,1,1*%
%TO.N,Net-(A1-D4)*%
X116918953Y-109148953D03*
X129418953Y-109148953D03*
%TO.P,SW2,2,2*%
%TO.N,unconnected-(SW2-Pad2)*%
X116918953Y-114148953D03*
X129418953Y-114148953D03*
%TD*%
D17*
%TO.P,REF\u002A\u002A,1*%
%TO.N,N/C*%
X117168953Y-92648953D03*
D18*
%TO.P,REF\u002A\u002A,2*%
X122168953Y-92648953D03*
%TD*%
D16*
%TO.P,SW1,1,1*%
%TO.N,Net-(A1-D3)*%
X151918953Y-109148953D03*
X164418953Y-109148953D03*
%TO.P,SW1,2,2*%
%TO.N,unconnected-(SW1-Pad2)*%
X151918953Y-114148953D03*
X164418953Y-114148953D03*
%TD*%
D19*
%TO.P,REF\u002A\u002A,1*%
%TO.N,N/C*%
X154168953Y-91648953D03*
D20*
%TO.P,REF\u002A\u002A,2*%
X154168953Y-92648953D03*
%TO.P,REF\u002A\u002A,3*%
X154168953Y-93648953D03*
%TO.P,REF\u002A\u002A,4*%
X154168953Y-94648953D03*
%TO.P,REF\u002A\u002A,5*%
X154168953Y-95648953D03*
%TD*%
D21*
%TO.N,Net-(A1-A5)*%
X142168953Y-109648953D03*
X140168953Y-99648953D03*
%TO.N,Net-(A1-+5V)*%
X145168953Y-109648953D03*
%TO.N,Net-(A1-A4)*%
X139168953Y-110648953D03*
%TO.N,unconnected-(SW2-Pad2)*%
X130593953Y-117148953D03*
%TD*%
D10*
%TO.N,Net-(A1-A5)*%
X147882376Y-123442376D02*
X148168953Y-123728953D01*
X142168953Y-109648953D02*
G75*
G03*
X147882379Y-123442373I19506837J3D01*
G01*
%TO.N,Net-(A1-+5V)*%
X147615542Y-115555543D02*
X148168953Y-116108953D01*
X145168953Y-109648953D02*
G75*
G03*
X147615542Y-115555543I8353187J3D01*
G01*
%TO.N,Net-(A1-A4)*%
X143850000Y-121950000D02*
X148168953Y-126268953D01*
X139168953Y-110648953D02*
G75*
G03*
X143849998Y-121950002I15982087J-7D01*
G01*
%TD*%
M02*
